<svg xmlns="http://www.w3.org/2000/svg" xmlns:xlink="http://www.w3.org/1999/xlink" viewBox="0 0 309 16"><path d="M 0.883 14.645 C 10.447 14.645 10.447 3.953 20.085 3.953 C 29.649 3.953 29.649 14.645 39.287 14.645 C 48.851 14.645 48.851 3.953 58.489 3.953 C 68.054 3.953 68.054 14.645 77.691 14.645 C 87.256 14.645 87.256 3.953 96.894 3.953 C 106.458 3.953 106.458 14.645 116.096 14.645 C 125.66 14.645 125.66 3.953 135.298 3.953 C 144.862 3.953 144.862 14.645 154.5 14.645 C 164.064 14.645 164.064 3.953 173.702 3.953 C 183.266 3.953 183.266 14.645 192.904 14.645 C 202.469 14.645 202.469 3.953 212.106 3.953 C 221.671 3.953 221.671 14.645 231.309 14.645 C 240.873 14.645 240.873 3.953 250.511 3.953 C 260.075 3.953 260.075 14.645 269.713 14.645 C 279.277 14.645 279.277 3.953 288.915 3.953 C 298.479 3.953 298.479 14.645 308.117 14.645" fill="transparent" stroke-width="4.18" stroke="rgb(67, 199, 217)" stroke-linecap="round" stroke-miterlimit="10"></path></svg>